<?xml version="1.0" standalone="no"?>
<!DOCTYPE svg PUBLIC "-//W3C//DTD SVG 20010904//EN"
 "http://www.w3.org/TR/2001/REC-SVG-20010904/DTD/svg10.dtd">
<svg version="1.0" xmlns="http://www.w3.org/2000/svg"
 width="350.000000pt" height="350.000000pt" viewBox="0 0 350.000000 350.000000"
 preserveAspectRatio="xMidYMid meet">
<metadata>
Created by potrace 1.14, written by Peter Selinger 2001-2017
</metadata>
<g transform="translate(0.000000,350.000000) scale(0.100000,-0.100000)"
fill="#000000" stroke="none">
<path d="M2245 2312 c-18 -2 -29 -37 -88 -255 -37 -139 -70 -259 -72 -267 -2
-8 -45 -167 -95 -353 -50 -187 -89 -341 -86 -344 4 -5 226 -11 226 -7 0 0 21
77 46 170 75 279 85 319 88 329 1 6 14 55 29 110 101 369 166 610 163 612 -3
4 -188 8 -211 5z"/>
<path d="M1080 2262 c-6 -2 -10 -47 -10 -113 l0 -109 154 0 153 0 1 -382 c0
-211 1 -391 1 -400 1 -16 14 -18 136 -18 l135 0 1 48 c0 26 1 206 1 400 l-1
352 155 0 155 0 -3 113 -3 112 -432 0 c-238 0 -437 -1 -443 -3z"/>
<path d="M532 1922 l-362 -146 0 -120 0 -121 358 -142 c196 -78 364 -143 372
-145 12 -2 14 18 15 119 1 122 0 122 -25 132 -14 5 -113 40 -220 76 -107 37
-202 71 -210 76 -13 7 -13 8 0 13 67 25 342 120 370 128 87 25 86 23 85 154 0
67 -5 118 -10 120 -6 1 -173 -64 -373 -144z"/>
<path d="M2584 1949 c1 -100 4 -122 17 -129 9 -5 108 -41 220 -80 112 -38 211
-73 219 -76 13 -5 13 -6 0 -14 -8 -4 -96 -36 -195 -69 -99 -34 -198 -69 -221
-77 l-41 -16 1 -121 c2 -133 1 -131 60 -107 11 5 170 69 351 142 l330 133 3
120 3 121 -368 147 c-203 81 -371 147 -374 147 -3 0 -5 -54 -5 -121z"/>
</g>
</svg>
